<?xml version="1.0" encoding="UTF-8" standalone="no"?>
<!-- Created with Inkscape (http://www.inkscape.org/) -->

<svg
   xmlns:dc="http://purl.org/dc/elements/1.1/"
   xmlns:cc="http://creativecommons.org/ns#"
   xmlns:rdf="http://www.w3.org/1999/02/22-rdf-syntax-ns#"
   xmlns:svg="http://www.w3.org/2000/svg"
   xmlns="http://www.w3.org/2000/svg"
   xmlns:sodipodi="http://sodipodi.sourceforge.net/DTD/sodipodi-0.dtd"
   xmlns:inkscape="http://www.inkscape.org/namespaces/inkscape"
   version="1.1"
   id="svg2"
   xml:space="preserve"
   width="239.97992"
   height="74.32"
   viewBox="0 0 239.97992 74.32"
   sodipodi:docname="VCXDKLogo.svg"
   inkscape:version="0.92.5 (2060ec1f9f, 2020-04-08)"><metadata
     id="metadata8"><rdf:RDF><cc:Work
         rdf:about=""><dc:format>image/svg+xml</dc:format><dc:type
           rdf:resource="http://purl.org/dc/dcmitype/StillImage" /><dc:title></dc:title></cc:Work></rdf:RDF></metadata><defs
     id="defs6"><inkscape:path-effect
       effect="simplify"
       id="path-effect1210"
       is_visible="true"
       steps="1"
       threshold="0.00693359"
       smooth_angles="360"
       helper_size="0"
       simplify_individual_paths="false"
       simplify_just_coalesce="false"
       simplifyindividualpaths="false"
       simplifyJustCoalesce="false" /><clipPath
       clipPathUnits="userSpaceOnUse"
       id="clipPath18"><path
         d="M 0,57.12 H 184.561 V 0 H 0 Z"
         id="path16"
         inkscape:connector-curvature="0" /></clipPath></defs><sodipodi:namedview
     pagecolor="#ffffff"
     bordercolor="#666666"
     borderopacity="1"
     objecttolerance="10"
     gridtolerance="10"
     guidetolerance="10"
     inkscape:pageopacity="0"
     inkscape:pageshadow="2"
     inkscape:window-width="1435"
     inkscape:window-height="601"
     id="namedview4"
     showgrid="false"
     inkscape:zoom="3.031518"
     inkscape:cx="183.35855"
     inkscape:cy="62.183834"
     inkscape:window-x="0"
     inkscape:window-y="0"
     inkscape:window-maximized="0"
     inkscape:current-layer="layer1"
     showguides="true"
     inkscape:guide-bbox="true"
     fit-margin-top="0"
     fit-margin-left="0"
     fit-margin-right="0"
     fit-margin-bottom="0" /><g
     inkscape:groupmode="layer"
     id="layer1"
     inkscape:label="VCXDK"
     transform="translate(-2.6666666e-4,-1.8398686)"><path
       style="display:inline;fill:#000000;fill-opacity:0.99456518;fill-rule:nonzero;stroke:none;stroke-width:1.33333325;stroke-opacity:1"
       d="m 11.600267,1.8398686 h -0.64 c -6.0800004,0 -10.96000033334,4.7999999 -10.96000033334,10.8800004 v 52.559998 c 0,6 4.87999993334,10.88 10.96000033334,10.88 H 229.10018 c 6,0 10.88,-4.88 10.88,-10.88 V 12.719869 c 0,-6.0000005 -4.88,-10.8800004 -10.88,-10.8800004 H 77.840265 l -3.6,10.8800004 H 224.61751 c 2.08133,0 3.76133,1.68 3.76133,3.76 v 45.039999 c 0,1.999999 -1.68,3.759999 -3.76133,3.759999 H 15.600267 c -2.08,0 -4,-1.76 -4,-3.759999 z"
       id="path64-5"
       inkscape:connector-curvature="0"
       inkscape:label="frame_path64"
       sodipodi:nodetypes="cssssssssccssssssc" /><path
       style="display:inline;fill:#000000;fill-opacity:0.95652173;fill-rule:nonzero;stroke:none;stroke-width:1.33333325;stroke-opacity:1"
       d="m 192.13885,42.159868 -5.03867,15.36 h -13.84133 l 12.23867,-37.119999 h 13.84133 l -4.72133,14.4 4.66896,-1e-6 c 8.77104,-14.4 6.73939,-14.399999 13.22425,-14.399999 8.97579,0 9.38812,0 9.38812,0 0,0 -1.07207,2.601348 -2.63303,7.359999 -7.01745,0 -6.77946,0 -13.50547,11.410747 9.63875,0 7.89967,5.413227 3.8185,18.349253 h -13.76 c 5.04134,-15.36 3.82051,-15.389555 0.50565,-15.36 -4.18565,0 -4.18565,0 -4.18565,0"
       id="path30-6"
       inkscape:connector-curvature="0"
       inkscape:label="K_path30"
       sodipodi:nodetypes="ccccccccccccccc" /><path
       style="display:inline;fill:#000000;fill-opacity:1;fill-rule:nonzero;stroke:none;stroke-width:1.33333325;stroke-opacity:1"
       d="m 144.04213,20.400391 -5.33984,16.699707 -6.58008,20.419433 h 22.4781 c 10,0 16.15968,-0.399219 21.04101,-17.199219 3.28,-11.599998 0.9593,-19.919921 -10.7207,-19.919921 z m 10.25958,7.439453 h 4.77907 c 6.64,0 2.96047,8.880704 2.48047,10.720703 -1.52,5.36 -4.00056,11.519531 -9.19922,11.519531 h -5.02125 z"
       id="path60-3"
       inkscape:connector-curvature="0"
       inkscape:label="D_path60-3"
       sodipodi:nodetypes="cccscsccscscc" /><path
       style="display:inline;fill:#000000;fill-opacity:1;fill-rule:nonzero;stroke:none;stroke-width:1.33333325;stroke-opacity:1"
       d="m 88.972849,27.839868 c -5.198658,0 -7.678656,6.160001 -9.198654,11.520001 -0.48,1.839999 -4.159998,10.719999 2.479998,10.719999 h 8.559996 l -2.48,7.44 H 76.414195 c -11.679992,0 -13.999992,-8.32 -10.719994,-19.919999 4.881328,-16.8 11.039994,-17.2 21.03999,-17.2 h 13.519989 l -2.479995,7.439999 z"
       id="path60-5"
       inkscape:connector-curvature="0"
       inkscape:label="C_path60" /><path
       style="display:inline;fill:#000000;fill-opacity:1;fill-rule:nonzero;stroke:none;stroke-width:1.33333325;stroke-opacity:1"
       d="M 56.320265,1.8398686 44.960265,36.319868 33.520266,1.8398686 h -17.84 l 18.4,55.6799994 h 17.919999 l 18.32,-55.6799994 z"
       id="path56-6"
       inkscape:connector-curvature="0"
       inkscape:label="V_path56" /><path
       d="m 130.60375,57.519868 -6.57814,-19.000593 17.72824,-18.119407 h -12.96969 l -5.74325,6.774124 c -1.75331,2.147893 -3.0972,3.800119 -4.85747,6.168309 h -0.12608 c -0.34445,-2.092819 -0.71332,-3.910267 -1.25754,-6.168309 l -1.56954,-6.774124 h -13.03225 l 6.03143,18.339703 -18.253238,18.780297 h 12.969218 l 5.59963,-6.71905 c 2.20845,-2.588487 3.8919,-4.516084 5.45608,-6.663977 h 0.12608 c 0.51619,2.147893 0.9131,4.07549 1.66759,6.663977 l 1.71316,6.71905 z"
       style="font-style:normal;font-variant:normal;font-weight:bold;font-stretch:normal;font-size:40px;line-height:1.25;font-family:'Myriad Pro';-inkscape-font-specification:'Myriad Pro Bold';text-align:start;letter-spacing:0px;word-spacing:0px;text-anchor:start;display:inline;fill:#000000;fill-opacity:1;stroke:none;stroke-width:1.47308087"
       id="path1315"
       inkscape:connector-curvature="0"
       sodipodi:nodetypes="ccccccccccccccccccc"
       inkscape:label="X_path1315" /></g></svg>